<?xml version="1.0" encoding="UTF-8"?>
<svg width="1e3" height="335" version="1.0" viewBox="-2.55 -2.55 255 84.9" xmlns="http://www.w3.org/2000/svg" xmlns:cc="http://creativecommons.org/ns#" xmlns:dc="http://purl.org/dc/elements/1.1/" xmlns:rdf="http://www.w3.org/1999/02/22-rdf-syntax-ns#" xmlns:xlink="http://www.w3.org/1999/xlink">
<title>Apollo Computers logo</title>
<desc>An information technology company that acquired by Hewlett-Packard in 1989</desc>
 <path id="vlpa" d="m47.4 12.4h5v55h-5z"/>
 <use transform="matrix(1 0 0 1.27 10 -3.39)" width="512" height="160" xlink:href="#vlpa"/>
 <use transform="matrix(1 0 0 1.27 130 -18.4)" width="512" height="160" xlink:href="#vlpa"/>
 <use transform="matrix(1 0 0 1.27 140 -18.4)" width="512" height="160" xlink:href="#vlpa"/>
 <path id="vlpb" d="m50 39.9a24.7 25.1 0 1 1-49.3 0 24.7 25.1 0 1 1 49.3 0z" style="fill:none;stroke-width:4.87;stroke:#000"/>
 <use transform="translate(60)" width="512" height="160" xlink:href="#vlpb"/>
 <use transform="translate(120)" width="512" height="160" xlink:href="#vlpb"/>
 <use transform="matrix(.972 0 0 1 200 0)" width="512" height="160" xlink:href="#vlpb"/>
</svg>
