<?xml version="1.0" encoding="UTF-8"?>
<svg width="1024" height="139" version="1.1" viewBox="-.776 -.776 202 27.4" xmlns="http://www.w3.org/2000/svg" xmlns:cc="http://creativecommons.org/ns#" xmlns:dc="http://purl.org/dc/elements/1.1/" xmlns:rdf="http://www.w3.org/1999/02/22-rdf-syntax-ns#">
<title>Data General logo</title>
<desc>An information technology company based in Westborough, Massachusetts. Acquired by EMC Corporation in 1999</desc>
 <metadata>
  <rdf:RDF>
   <cc:Work rdf:about="">
    <dc:format>image/svg+xml</dc:format>
    <dc:type rdf:resource="http://purl.org/dc/dcmitype/StillImage"/>
    <dc:title/>
   </cc:Work>
  </rdf:RDF>
 </metadata>
 <path d="m114 0c1.95 0 3.92 0.688 4.62 1.22 0.708 0.355 1.07 0.74 1.78 0.562 0.531-0.177 0.875 0 0.875 0 0 1.06 0.188 1.59 0.188 2.66 0 1.24-0.01 1.59-0.188 3.19l-0.53 0.156c-0.71-0.176-1.24-0.706-1.6-2.66-0.355-1.77-2.66-3.53-5.5-3.53-1.95 0-6.9 2.66-6.9 11.5 0 9.22 5.48 11 7.44 11 1.95 0 4.26 0 4.97-3.19 0.355-0.887 0.355-3.18-0.53-4.06-0.355-0.709-1.08-0.708-1.25-1.06v-0.718c1.77 0 1.78-0.188 2.84-0.188 1.06 0 1.42 0.01 2.66 0.188v2.47c-0.179 1.6-0.523 3.56 0.718 4.62 0.532 0.532 1.06 0.709 1.06 1.06 0 0-0.01 0.354-0.187 0.531-0.887 0.533-3 2.12-9.56 2.12-6.2 0-12.2-3.9-12.2-12.9 0-8.33 6.2-12.9 11.3-12.9z" style="fill-rule:evenodd;fill:#010101"/>
 <path d="m39.9 0.22c-0.642 0.02-1.31 0.06-2 0.125 0 0-1.95 0.01-3.72 0.188 0 0-0.188 0.332-0.188 0.687 0 0.533 0.529 0.553 1.06 0.906 0.352 0.178 0.531 0.353 0.531 1.06v19.7c0 0.354-0.364 0.698-0.719 0.876-0.531 0.355-1.22 0.343-1.22 0.874 0 0.356 0.157 0.719 0.157 0.719 1.6 0.175 3.75 0.188 5.34 0.188 1.06 0 7.08 0.337 11.2-3.03 2.3-1.77 4.25-4.77 4.25-9.38 0-4.43-1.42-7.82-4.44-10.1-2.33-1.86-5.72-2.9-10.2-2.78zm1.91 1.91c1.77 0.178 4.26 0.342 6.03 2.47 1.42 1.6 2.47 4.26 2.47 8.69 0 3.9-0.893 6.4-2.31 7.81-2.13 2.3-5.14 2.31-5.84 2.31-0.887 0-1.6-0.199-2.84-0.375v-20.6c1.06-0.356 2.5-0.344 2.5-0.344z" style="fill-rule:evenodd;fill:#010101"/>
 <path d="m199 0.531 0.187 1.41v20.9c0 0.354 0.176 0.885 0.531 1.06 0.532 0.355 0.876 0.343 0.876 0.875 0 0.177 0.178 0.353 0 0.531 0 0-1.95 0.187-3.19 0.187-1.06 0-3-0.187-3-0.187 0-0.178-0.189-0.354-0.189-0.531 0-0.709 0.897-0.52 1.25-0.875 0.179-0.178 0.532-0.709 0.532-1.06v-19.5c0-0.531-0.363-0.895-0.718-1.25-0.533-0.354-1.25-0.551-1.25-0.906s0.01 0 0.186-0.531l4.78-0.157z" style="fill-rule:evenodd;fill:#010101"/>
 <path d="m10.3 0.875v24.3c-5.85-0.708-10.3-6.36-10.3-12 0-5.85 4.08-11.2 10.3-12.2z" style="fill-rule:evenodd;fill:#010101"/>
 <path d="m73.9 5.5v5.5h3.19v1.59h-3.19v9.22c0 0.886 0.519 1.75 1.41 1.75 0.886 0.177 1.05-0.167 1.94-0.344 0.355 0.177 0.375 0.531 0.375 0.531 0 0.533-0.372 0.895-0.905 1.25-0.531 0.354-1.39 0.688-2.81 0.688-1.6 0-3.03-0.528-3.03-3.72v-9.22l-1.59-0.344v-1.25l1.59-0.156 0.345-5.34 2.69-0.156z" style="fill-rule:evenodd;fill:#010101"/>
 <path d="m177 10.5c1.06 0 1.59 0.885 1.59 1.59 0 0.887-0.363 1.95-2.31 1.59-1.77-0.355-2.84 2.1-2.84 3.88v5.34c0 0.531 0.187 0.885 0.719 1.06 0.531 0.177 1.06 0.166 1.06 0.875v0.531s-2.13 0.187-3.38 0.187c-1.6 0-3-0.187-3-0.187s-0.188-0.354-0.188-0.531c0-0.532 0.52-0.52 0.875-0.875s0.72-0.532 0.72-1.06v-9.22c0-0.531-0.343-1.07-0.875-1.25-0.532-0.355-0.907-0.52-0.907-0.875s0.01 0 0.187-0.531l4.06-0.375 0.187 3.19c0.533-0.709 0.875-1.42 1.41-2.12 0.533-0.533 1.27-1.22 2.69-1.22z" style="fill-rule:evenodd;fill:#010101"/>
 <path d="m61.2 10.6c-4.26 0-5.12 2.31-5.12 2.84 0 0.355 0.529 1.41 1.59 1.41 1.06 0 1.4-0.332 1.75-1.22 0.177-0.887 0.364-1.59 1.78-1.59 1.6 0 2.66 1.05 2.66 1.94v2.12c-1.24 0-2.48 0.178-3.72 0.532-1.42 0.355-5.16 1.07-5.16 4.97 0 3.19 3.73 3.91 4.44 3.91 2.3 0 3.36-0.541 4.25-1.25 0.354-0.533 0.739-0.543 1.09-0.188 0.355 0.531 1.06 1.44 2.12 1.44s1.93-0.355 2.28-0.531c0.355-0.356 0.53-0.905 0-1.44-0.71 0.178-1.24 0.01-1.59-0.344-0.355-0.176-0.531-0.697-0.531-1.41l-0.156-6.41c0-3.37-2.32-4.78-5.69-4.78zm2.66 7.09v3.03c0 1.95-1.58 3-3 3-0.887 0-2.5-0.342-2.5-2.47 0-1.95 1.24-2.68 2.66-3.03 1.06-0.356 1.96-0.354 2.84-0.532z" style="fill-rule:evenodd;fill:#010101"/>
 <path d="m85.3 10.6c-4.26 0-4.97 2.31-4.97 2.84 0 0.355 0.518 1.41 1.41 1.41 1.06 0 1.61-0.332 1.97-1.22 0.178-0.887 0.333-1.59 1.75-1.59 1.42 0 2.5 1.05 2.5 1.94v2.12c-1.24 0-2.3 0.178-3.72 0.532-1.24 0.355-4.97 1.07-4.97 4.97 0 3.19 3.73 3.91 4.44 3.91 2.31 0 3.18-0.541 4.06-1.25 0.53-0.533 0.71-0.543 1.06-0.188 0.356 0.531 1.25 1.44 2.31 1.44 1.06 0 1.77-0.355 2.12-0.531 0.355-0.356 0.72-0.905 0.187-1.44-0.708 0.178-1.24 0.01-1.59-0.344-0.355-0.176-0.531-0.697-0.531-1.41l-0.188-6.41c0-3.37-2.3-4.78-5.84-4.78zm2.66 7.09v3.03c0 1.95-1.43 3-2.84 3-1.06 0-2.47-0.342-2.47-2.47 0-1.95 1.23-2.68 2.47-3.03 1.24-0.356 1.96-0.354 2.84-0.532z" style="fill-rule:evenodd;fill:#010101"/>
 <path d="m132 10.6c-3.37 0-6.91 3.18-6.91 7.44 0 4.79 3.36 7.62 7.44 7.62 3.19 0 5.34-1.92 5.87-3.34 0-0.176-0.187-0.531-0.187-0.531s-0.539-0.178-0.719 0c-1.42 1.77-3.54 2.12-4.78 2.12-2.3 0-4.6-2.14-4.06-6.22 2.66 0.175 2.46 0.188 3.88 0.188 2.31 0 4.63-0.199 5.87-0.375v-1.06c0.178-1.42-1.44-5.84-6.41-5.84zm-0.218 1.44c0.132-0.02 0.262 0 0.406 0 1.6 0 2.84 1.77 2.84 3.72 0 0-1.97 0.156-3.03 0.156-1.24 0-3-0.156-3-0.156 0.168-1.33 0.805-3.46 2.78-3.72z" style="fill-rule:evenodd;fill:#010101"/>
 <path d="m143 10.6v1.59h0.156c0.71-0.709 2.3-1.59 4.78-1.59 3.01 0 4.28 2.49 4.28 4.44v7.81c0 0.354 0.176 0.698 0.532 0.875 0.533 0.355 1.06 0.531 1.06 1.06 0 0.177-0.189 0.531-0.189 0.531s-1.94 0.187-3 0.187c-1.24 0-2.84-0.187-2.84-0.187v-0.531c0-0.709 0.52-0.53 0.875-1.06 0.177-0.177 0.532-0.521 0.532-0.875v-7.47c0-1.06-0.518-2.81-3-2.81-1.95 0-3.19 1.39-3.19 3.34v6.94c0 0.178-0.02 0.698 0.156 0.875 0.532 0.533 1.44 0.354 1.44 1.06 0 0.177-0.375 0.531-0.375 0.531-1.95 0-1.57 0.187-2.81 0.187-1.06 0-2.84-0.187-2.84-0.187s-0.189-0.354-0.189-0.531c0-0.709 0.709-0.53 1.06-1.06 0.177-0.177 0.343-0.521 0.343-0.875l0.187-9.22c0-0.531-0.52-1.07-0.875-1.25-0.53-0.355-1.06-0.52-1.06-0.875s0.157-0.531 0.157-0.531l4.81-0.375z" style="fill-rule:evenodd;fill:#010101"/>
 <path d="m162 10.6c-3.55 0-6.91 3.18-6.91 7.44 0 4.79 3.36 7.62 7.44 7.62 3.19 0 5.14-1.92 5.84-3.34 0-0.176 0.01-0.355-0.344-0.531-0.179-0.178-0.543-0.178-0.719 0-1.24 1.77-3.35 2.12-4.59 2.12-2.3 0-4.8-2.14-4.09-6.22 2.66 0.175 2.31 0.188 3.91 0.188 2.3 0 4.43-0.199 5.84-0.375v-1.06c0-1.42-1.59-5.84-6.38-5.84zm-0.374 1.44c0.123-0.02 0.242 0 0.374 0 1.6 0 3 1.77 3 3.72 0 0-1.95 0.156-3.19 0.156-1.24 0-3-0.156-3-0.156 0.165-1.33 0.961-3.46 2.81-3.72z" style="fill-rule:evenodd;fill:#010101"/>
 <path d="m185 10.6c-4.26 0-4.97 2.31-4.97 2.84 0 0.355 0.529 1.41 1.59 1.41 0.885 0 1.4-0.332 1.75-1.22 0.177-0.887 0.364-1.59 1.78-1.59 1.6 0 2.5 1.05 2.5 1.94v2.12c-1.06 0-2.32 0.178-3.56 0.532-1.42 0.355-5.12 1.07-5.12 4.97 0 3.19 3.7 3.91 4.41 3.91 2.3 0 3.38-0.541 4.09-1.25 0.531-0.533 0.895-0.543 1.25-0.188 0.355 0.531 1.06 1.44 2.12 1.44s1.77-0.178 2.12-0.531c0.355-0.533 0.531-0.905 0-1.44-0.709 0.178-1.08 0.01-1.44-0.344-0.352-0.176-0.531-0.697-0.531-1.41l-0.156-6.41c0-3.37-2.3-4.78-5.84-4.78zm2.66 7.09v3.03c0 1.95-1.42 3-2.84 3-0.887 0-2.5-0.342-2.5-2.47 0-1.95 1.26-2.68 2.5-3.03 1.24-0.356 1.96-0.354 2.84-0.532z" style="fill-rule:evenodd;fill:#010101"/>
 <path d="m14.3 13.1h10.5c0.179 2.84-1.07 5.5-2.84 7.62-1.77 2.3-4.79 4.23-7.62 4.41v-12z" style="fill-rule:evenodd;fill:#e72d2c"/>
</svg>
