<?xml version="1.0" encoding="UTF-8" standalone="no"?>
<svg
   xmlns:svg="http://www.w3.org/2000/svg"
   xmlns="http://www.w3.org/2000/svg"
   version="1.1"
   width="565"
   height="103"
   style="font-family:'Microgramma D Extended';fill:#0000ff"
   id="svg2">
  <rect
     width="56"
     height="56"
     x="24.5"
     style="fill:#0000ff"
     id="rect4" />
  <ellipse
     rx="28.5"
     ry="27.5"
     cx="81"
     cy="56.5"
     style="fill:#ff0000"
     id="path6" />
  <path
     d="M 24.5,54 49,103 H 0 Z"
     style="fill:#008000"
     id="path8" />
  <g
     transform="matrix(0.083,0,-0.03021,0.083,0,0)"
     aria-label="symbolics"
     id="text28">
    <path
       d="m 1909,907 v 24 c 0,57 11,86 43,109 35,26 98,34 256,34 132,0 199,-7 232,-25 38,-21 55,-55 55,-112 0,-91 -43,-131 -149,-135 -48,-2 -182,-5 -213,-4 -111,2 -138,-10 -138,-61 0,-24 7,-41 21,-51 21,-16 82,-23 185,-23 110,0 165,8 185,29 11,10 14,22 14,56 h 78 c 0,-55 -4,-70 -21,-91 -34,-44 -97,-58 -253,-58 -136,0 -205,9 -238,30 -33,22 -49,57 -49,107 0,93 43,126 165,128 177,2 192,2 212,2 93,-1 123,17 123,72 0,23 -6,39 -20,50 -22,18 -58,22 -186,22 -208,0 -224,-6 -223,-90 l -1,-13 z"
       id="path10" />
    <path
       d="m 2493,605 261,463 h 25 l -86,173 h 80 l 333,-636 h -86 l -208,404 h -9 L 2579,605 Z"
       id="path12" />
    <path
       d="m 3118,605 v 463 h 73 V 886 c 0,-115 6,-155 29,-181 27,-30 73,-42 166,-42 87,0 132,10 158,34 19,19 25,44 25,111 v 260 h 73 V 886 c 0,-113 7,-152 33,-182 25,-30 69,-41 162,-41 153,0 182,23 182,145 v 260 h 73 V 824 c 0,-108 -6,-135 -36,-169 -39,-42 -92,-56 -218,-56 -133,0 -186,20 -216,81 -37,-63 -89,-81 -240,-81 -113,0 -144,11 -190,67 v -61 z"
       id="path14" />
    <path
       d="m 4166,401 v 667 h 72 v -59 h 4 c 35,54 73,65 220,65 114,0 161,-5 199,-20 74,-30 105,-92 105,-211 0,-109 -20,-166 -70,-205 -42,-32 -89,-40 -246,-40 -132,0 -173,12 -206,62 h -5 V 401 Z m 285,261 c 97,0 146,5 174,18 45,21 63,65 63,158 0,141 -36,172 -200,172 -107,0 -162,-5 -190,-19 -46,-21 -61,-59 -61,-154 0,-149 32,-175 214,-175 z"
       id="path16" />
    <path
       d="m 5122,599 c -105,0 -157,7 -195,27 -61,32 -89,98 -89,208 0,114 23,173 82,207 42,25 99,33 235,33 118,0 170,-7 210,-30 58,-33 83,-96 83,-208 0,-108 -23,-168 -79,-204 -40,-25 -97,-33 -247,-33 z m 12,64 c 94,0 144,5 172,18 47,21 64,62 64,153 0,81 -12,122 -42,146 -30,23 -71,30 -179,30 -86,0 -130,-4 -160,-15 -54,-19 -73,-60 -73,-156 0,-149 33,-176 218,-176 z"
       id="path18" />
    <path
       d="m 5536.6,401 v 667 h 73 V 401 Z"
       id="path20" />
    <path
       d="m 5693,605 v 463 h 73 V 605 Z m 0,-204 v 87 h 73 v -87 z"
       id="path22" />
    <path
       d="m 6346,900 c -3,90 -36,109 -186,109 -97,0 -153,-6 -182,-20 -42,-19 -60,-64 -60,-147 0,-151 33,-179 212,-179 170,0 210,20 212,107 h 76 c -3,-60 -13,-92 -40,-119 -37,-39 -100,-52 -248,-52 -111,0 -165,8 -205,30 -58,32 -85,97 -85,208 0,96 21,158 64,193 41,34 105,44 270,44 120,0 172,-13 208,-51 27,-28 38,-61 39,-123 z"
       id="path24" />
    <path
       d="m 6489,907 v 24 c 0,57 11,86 43,109 35,26 98,34 256,34 132,0 199,-7 232,-25 38,-21 55,-55 55,-112 0,-91 -43,-131 -149,-135 -48,-2 -182,-5 -213,-4 -111,2 -138,-10 -138,-61 0,-24 7,-41 21,-51 21,-16 82,-23 185,-23 110,0 165,8 185,29 11,10 14,22 14,56 h 78 c 0,-55 -4,-70 -21,-91 -34,-44 -97,-58 -253,-58 -136,0 -205,9 -238,30 -33,22 -49,57 -49,107 0,93 43,126 165,128 177,2 192,2 212,2 93,-1 123,17 123,72 0,23 -6,39 -20,50 -22,18 -58,22 -186,22 -208,0 -224,-6 -223,-90 l -1,-13 z"
       id="path26" />
  </g>
</svg>
