<svg height="1000" viewBox="0 0 228.65 77.102" width="2965.5" xmlns="http://www.w3.org/2000/svg"><g clip-rule="evenodd" fill-rule="evenodd"><path d="m15.953 0c-10.47 10.968-15.953 20.107-15.953 37.887 0 17.613 5.8161 28.249 16.95 38.717l.49845.49846h195.58c10.302-11.631 15.621-20.936 15.621-38.883 0-15.453-4.3209-26.255-14.623-37.721l-.49846-.49845z" fill="#00008b" stroke-width="1.2039"/><g fill="#fff" stroke-width="15.615" transform="scale(.077102)"><path d="m2353.3 224.44c-140.08 0-262.95 116.39-262.95 273.71 0 157.33 133.64 275.86 301.73 275.86 135.77 0 219.82-43.112 219.82-66.814 0-19.377-34.492-30.184-34.492-62.49l6.4648-96.98c.026-15.084-10.742-23.703-36.6-23.703h-75.418c-21.564 0-36.664 10.774-36.664 25.857 0 25.858 45.252 12.929 45.252 73.279 0 51.715-43.096 88.346-99.121 88.346-88.378 0-172.43-101.28-172.43-215.51 0-135.78 92.687-217.67 168.11-217.67 107.74 0 96.982 112.07 148.73 112.07 15.068 0 21.533-12.944 21.533-34.492v-99.137c0-15.084-6.4658-25.857-19.395-25.857-17.238 0-25.858 12.928-49.56 12.928-30.199 0-58.226-19.393-125.01-19.393z"/><path d="m1271.6 226.63c-6.4644 0-73.279 51.716-73.279 62.506 0 12.929 12.943 17.238 12.943 28.012 0 8.6192-4.2929 19.41-12.943 38.787l-127.16 310.34c-19.393 47.39-56.025 38.786-56.025 75.418 0 12.944 6.4804 23.719 15.084 23.719h107.76c19.393 0 36.646-15.084 36.646-30.184-.016-23.672-40.957-21.532-40.957-49.529l8.6192-28.027c4.3096-12.929 17.239-32.322 56.025-32.322h109.93c23.703 0 34.478-.00058 47.406 10.773l6.4629 4.2949 6.4805 8.6191 12.93 43.127c0 25.858-30.168 23.719-30.168 47.406 0 17.238 19.394 25.857 47.406 25.857h96.965c38.786 0 47.422-2.1551 47.422-23.719 0-32.322-28.027-17.238-62.504-92.688l-181.02-398.67c-6.4801-12.929-15.083-23.719-28.012-23.719zm-17.441 189.54c8.6192 0 12.928 12.929 21.547 32.322 32.322 66.799 47.406 99.121 47.406 109.91 0 4.3096-4.2948 8.6191-12.93 8.6191h-109.91c-8.6192 0-10.774-4.2934-10.774-10.758l8.6035-25.889 32.338-77.574c6.48-21.548 15.1-36.631 23.719-36.631z"/><path d="m387.96 233.05c-12.929 0-25.859 10.759-25.859 23.703 0 34.477 30.168 6.4634 53.871 71.123l153.02 411.63c6.4644 17.238 17.239 28.012 30.184 28.012 17.238 0 28.012-15.084 36.631-40.941l66.814-178.88c10.774-28.028 19.41-40.941 28.014-40.941 6.4644 0 15.1 15.082 23.719 38.785l66.799 176.73c10.774 27.997 19.408 45.234 38.785 45.234 17.238 0 25.858-15.084 32.338-40.941l155.18-431.02c4.294-12.929 43.096-2.1545 43.096-34.477 0-21.564-12.93-28.012-36.648-28.012h-86.207c-15.099 0-28.012 6.4647-28.012 23.703 0 32.322 30.166 19.393 36.631 40.941l-75.418 217.67c-4.3096 15.084-10.773 32.322-21.562 32.322-8.6192 0-19.395-12.945-25.859-32.322l-68.969-198.27c-2.1548-6.4644-2.1543-10.774-2.1543-15.084 0-23.718 30.182-23.718 30.182-45.25 0-15.084-12.928-23.703-36.646-23.703h-120.68c-17.238 0-30.168 12.929-30.168 25.857 0 10.758 32.322.00007 66.799 116.39l-56.025 144.37c-4.3096 17.238-8.6186 25.873-19.393 25.873-10.774-.0156-17.238-10.805-19.408-25.889l-71.125-204.72c-2.1392-4.3096-2.1387-8.6357-2.1387-12.93 0-19.393 28.012-21.563 28.012-45.25 0-17.238-17.238-23.703-36.646-23.703z"/><path d="m1612.2 233.12c-12.929 0-34.492 15.068-34.492 32.307 0 21.548 43.127 30.181 43.127 56.039v364.22c0 25.858-43.127 30.184-43.127 53.871 0 10.774 15.1 25.857 36.664 25.857h68.953c15.099 0 34.492-12.929 34.492-25.857 0-17.238-38.787-32.322-38.787-56.025v-271.57c-.026-10.774 4.2641-15.084 10.728-15.084 10.79 0 19.424 4.3104 28.027 21.549l215.53 312.51c15.068 23.718 27.997 32.32 43.096 32.32 23.703 0 28.027-21.562 28.027-47.404v-405.17c0-30.183 36.633-30.183 36.633-58.195 0-10.758-8.603-19.377-27.996-19.377h-75.451c-23.703 0-34.492 4.2933-34.492 19.377 0 23.718 38.787 28.013 38.787 62.506l2.1699 176.72c0 17.238-4.2943 27.996-15.1 27.996-8.6036 0-15.066-8.6193-40.924-49.545l-142.23-200.43c-19.393-34.477-21.563-36.631-53.885-36.631z"/></g></g></svg>